<mxfile host="app.diagrams.net" modified="2023-03-20T19:35:20.276Z" agent="5.0 (Macintosh; Intel Mac OS X 10_15_7) AppleWebKit/537.36 (KHTML, like Gecko) Chrome/111.0.0.0 Safari/537.36" etag="QTx860YPl_IrZTnpBSdP" version="21.0.2" type="github" pages="2">
  <diagram name="Full Structure" id="hzSOFeTqwSm7YmFWf-Gk">
    <mxGraphModel dx="1207" dy="722" grid="1" gridSize="10" guides="1" tooltips="1" connect="1" arrows="1" fold="1" page="1" pageScale="1" pageWidth="1100" pageHeight="850" math="0" shadow="0">
      <root>
        <mxCell id="0" />
        <mxCell id="1" parent="0" />
        <mxCell id="_zq5Br-wlhpzqFv__YLc-4" style="edgeStyle=orthogonalEdgeStyle;rounded=0;orthogonalLoop=1;jettySize=auto;html=1;exitX=0.5;exitY=1;exitDx=0;exitDy=0;startArrow=classic;startFill=1;" parent="1" source="TEp5_pFMS3t9FEj-quZ2-1" target="miQHbOXTjicGSUZQ8w8e-3" edge="1">
          <mxGeometry relative="1" as="geometry" />
        </mxCell>
        <mxCell id="TEp5_pFMS3t9FEj-quZ2-1" value="Public&lt;br&gt;Certificate&lt;br&gt;Authority" style="rounded=1;whiteSpace=wrap;html=1;" parent="1" vertex="1">
          <mxGeometry x="200" y="160" width="120" height="60" as="geometry" />
        </mxCell>
        <mxCell id="TEp5_pFMS3t9FEj-quZ2-3" value="" style="endArrow=classic;startArrow=classic;html=1;rounded=0;exitX=1;exitY=0.5;exitDx=0;exitDy=0;entryX=0.002;entryY=0.199;entryDx=0;entryDy=0;entryPerimeter=0;" parent="1" source="TEp5_pFMS3t9FEj-quZ2-1" target="Y1CFVkIWuGub_H-9LGFk-16" edge="1">
          <mxGeometry width="50" height="50" relative="1" as="geometry">
            <mxPoint x="450" y="330" as="sourcePoint" />
            <mxPoint x="400" y="255" as="targetPoint" />
          </mxGeometry>
        </mxCell>
        <mxCell id="miQHbOXTjicGSUZQ8w8e-1" value="Secure Channel" style="text;strokeColor=none;align=center;fillColor=none;html=1;verticalAlign=middle;whiteSpace=wrap;rounded=0;" parent="1" vertex="1">
          <mxGeometry x="330" y="150" width="60" height="30" as="geometry" />
        </mxCell>
        <mxCell id="miQHbOXTjicGSUZQ8w8e-3" value="Ethereum" style="text;strokeColor=none;align=center;fillColor=none;html=1;verticalAlign=middle;whiteSpace=wrap;rounded=0;" parent="1" vertex="1">
          <mxGeometry x="230" y="275" width="60" height="20" as="geometry" />
        </mxCell>
        <mxCell id="miQHbOXTjicGSUZQ8w8e-4" value="" style="endArrow=classic;startArrow=classic;html=1;rounded=0;entryX=0.5;entryY=1;entryDx=0;entryDy=0;exitX=0.5;exitY=0;exitDx=0;exitDy=0;" parent="1" source="miQHbOXTjicGSUZQ8w8e-5" target="miQHbOXTjicGSUZQ8w8e-3" edge="1">
          <mxGeometry width="50" height="50" relative="1" as="geometry">
            <mxPoint x="260" y="360" as="sourcePoint" />
            <mxPoint x="260" y="320" as="targetPoint" />
          </mxGeometry>
        </mxCell>
        <mxCell id="miQHbOXTjicGSUZQ8w8e-5" value="" style="rounded=1;whiteSpace=wrap;html=1;dashed=1;dashPattern=1 1;" parent="1" vertex="1">
          <mxGeometry x="130" y="350" width="260" height="280" as="geometry" />
        </mxCell>
        <mxCell id="Y1CFVkIWuGub_H-9LGFk-11" style="edgeStyle=orthogonalEdgeStyle;rounded=0;orthogonalLoop=1;jettySize=auto;html=1;exitX=0.5;exitY=1;exitDx=0;exitDy=0;entryX=0.5;entryY=0;entryDx=0;entryDy=0;" parent="1" source="miQHbOXTjicGSUZQ8w8e-6" target="Y1CFVkIWuGub_H-9LGFk-1" edge="1">
          <mxGeometry relative="1" as="geometry" />
        </mxCell>
        <mxCell id="miQHbOXTjicGSUZQ8w8e-6" value="Patients" style="text;strokeColor=none;align=center;fillColor=none;html=1;verticalAlign=middle;whiteSpace=wrap;rounded=0;" parent="1" vertex="1">
          <mxGeometry x="140" y="435" width="60" height="20" as="geometry" />
        </mxCell>
        <mxCell id="Y1CFVkIWuGub_H-9LGFk-10" style="edgeStyle=orthogonalEdgeStyle;rounded=0;orthogonalLoop=1;jettySize=auto;html=1;exitX=0.5;exitY=1;exitDx=0;exitDy=0;entryX=0.5;entryY=0;entryDx=0;entryDy=0;" parent="1" source="miQHbOXTjicGSUZQ8w8e-7" target="miQHbOXTjicGSUZQ8w8e-16" edge="1">
          <mxGeometry relative="1" as="geometry" />
        </mxCell>
        <mxCell id="miQHbOXTjicGSUZQ8w8e-7" value="Health Organizations" style="text;strokeColor=none;align=center;fillColor=none;html=1;verticalAlign=middle;whiteSpace=wrap;rounded=0;" parent="1" vertex="1">
          <mxGeometry x="320" y="430" width="60" height="30" as="geometry" />
        </mxCell>
        <mxCell id="Y1CFVkIWuGub_H-9LGFk-8" style="edgeStyle=orthogonalEdgeStyle;rounded=0;orthogonalLoop=1;jettySize=auto;html=1;exitX=0;exitY=0.5;exitDx=0;exitDy=0;entryX=0.5;entryY=0;entryDx=0;entryDy=0;" parent="1" source="miQHbOXTjicGSUZQ8w8e-9" target="miQHbOXTjicGSUZQ8w8e-6" edge="1">
          <mxGeometry relative="1" as="geometry" />
        </mxCell>
        <mxCell id="Y1CFVkIWuGub_H-9LGFk-9" style="edgeStyle=orthogonalEdgeStyle;rounded=0;orthogonalLoop=1;jettySize=auto;html=1;exitX=1;exitY=0.5;exitDx=0;exitDy=0;entryX=0.5;entryY=0;entryDx=0;entryDy=0;" parent="1" source="miQHbOXTjicGSUZQ8w8e-9" target="miQHbOXTjicGSUZQ8w8e-7" edge="1">
          <mxGeometry relative="1" as="geometry" />
        </mxCell>
        <mxCell id="miQHbOXTjicGSUZQ8w8e-9" value="Smart Contract" style="rounded=0;whiteSpace=wrap;html=1;" parent="1" vertex="1">
          <mxGeometry x="220" y="360" width="80" height="40" as="geometry" />
        </mxCell>
        <mxCell id="Y1CFVkIWuGub_H-9LGFk-13" style="edgeStyle=orthogonalEdgeStyle;rounded=0;orthogonalLoop=1;jettySize=auto;html=1;exitX=0;exitY=0.5;exitDx=0;exitDy=0;entryX=1;entryY=0.5;entryDx=0;entryDy=0;" parent="1" source="miQHbOXTjicGSUZQ8w8e-16" target="Y1CFVkIWuGub_H-9LGFk-4" edge="1">
          <mxGeometry relative="1" as="geometry" />
        </mxCell>
        <mxCell id="miQHbOXTjicGSUZQ8w8e-16" value="Web Application&lt;br&gt;(GUI)" style="rounded=0;whiteSpace=wrap;html=1;" parent="1" vertex="1">
          <mxGeometry x="315" y="515" width="70" height="50" as="geometry" />
        </mxCell>
        <mxCell id="Y1CFVkIWuGub_H-9LGFk-12" style="edgeStyle=orthogonalEdgeStyle;rounded=0;orthogonalLoop=1;jettySize=auto;html=1;exitX=0.5;exitY=1;exitDx=0;exitDy=0;entryX=0.5;entryY=0;entryDx=0;entryDy=0;" parent="1" source="Y1CFVkIWuGub_H-9LGFk-1" target="Y1CFVkIWuGub_H-9LGFk-4" edge="1">
          <mxGeometry relative="1" as="geometry" />
        </mxCell>
        <mxCell id="Y1CFVkIWuGub_H-9LGFk-1" value="Device IMEI" style="rounded=0;whiteSpace=wrap;html=1;" parent="1" vertex="1">
          <mxGeometry x="138.75" y="480" width="62.5" height="30" as="geometry" />
        </mxCell>
        <mxCell id="Y1CFVkIWuGub_H-9LGFk-7" style="edgeStyle=orthogonalEdgeStyle;rounded=0;orthogonalLoop=1;jettySize=auto;html=1;exitX=0.5;exitY=1;exitDx=0;exitDy=0;entryX=0;entryY=0.5;entryDx=0;entryDy=0;" parent="1" source="Y1CFVkIWuGub_H-9LGFk-4" target="Y1CFVkIWuGub_H-9LGFk-6" edge="1">
          <mxGeometry relative="1" as="geometry" />
        </mxCell>
        <mxCell id="Y1CFVkIWuGub_H-9LGFk-4" value="DID" style="rounded=0;whiteSpace=wrap;html=1;" parent="1" vertex="1">
          <mxGeometry x="150" y="530" width="40" height="20" as="geometry" />
        </mxCell>
        <mxCell id="Y1CFVkIWuGub_H-9LGFk-83" style="edgeStyle=orthogonalEdgeStyle;rounded=0;orthogonalLoop=1;jettySize=auto;html=1;exitX=1;exitY=0.5;exitDx=0;exitDy=0;entryX=0.5;entryY=1;entryDx=0;entryDy=0;" parent="1" source="Y1CFVkIWuGub_H-9LGFk-6" target="Y1CFVkIWuGub_H-9LGFk-78" edge="1">
          <mxGeometry relative="1" as="geometry" />
        </mxCell>
        <mxCell id="Y1CFVkIWuGub_H-9LGFk-6" value="Smart Contract II" style="rounded=0;whiteSpace=wrap;html=1;" parent="1" vertex="1">
          <mxGeometry x="212.5" y="580" width="95" height="40" as="geometry" />
        </mxCell>
        <mxCell id="Y1CFVkIWuGub_H-9LGFk-14" value="" style="whiteSpace=wrap;html=1;aspect=fixed;" parent="1" vertex="1">
          <mxGeometry x="440" y="180" width="40" height="40" as="geometry" />
        </mxCell>
        <mxCell id="Y1CFVkIWuGub_H-9LGFk-16" value="" style="rounded=1;whiteSpace=wrap;html=1;dashed=1;dashPattern=1 1;" parent="1" vertex="1">
          <mxGeometry x="400" y="117.5" width="320" height="362.5" as="geometry" />
        </mxCell>
        <mxCell id="Y1CFVkIWuGub_H-9LGFk-17" value="Fabric Channel Subnet" style="text;strokeColor=none;align=center;fillColor=none;html=1;verticalAlign=middle;whiteSpace=wrap;rounded=0;" parent="1" vertex="1">
          <mxGeometry x="540" y="117.5" width="140" height="30" as="geometry" />
        </mxCell>
        <mxCell id="Y1CFVkIWuGub_H-9LGFk-19" style="edgeStyle=orthogonalEdgeStyle;rounded=0;orthogonalLoop=1;jettySize=auto;html=1;exitX=1;exitY=0.5;exitDx=0;exitDy=0;entryX=0;entryY=0.5;entryDx=0;entryDy=0;" parent="1" source="Y1CFVkIWuGub_H-9LGFk-18" target="Y1CFVkIWuGub_H-9LGFk-20" edge="1">
          <mxGeometry relative="1" as="geometry" />
        </mxCell>
        <mxCell id="Y1CFVkIWuGub_H-9LGFk-23" style="edgeStyle=orthogonalEdgeStyle;rounded=0;orthogonalLoop=1;jettySize=auto;html=1;exitX=1;exitY=0.5;exitDx=0;exitDy=0;entryX=0;entryY=0.5;entryDx=0;entryDy=0;" parent="1" source="Y1CFVkIWuGub_H-9LGFk-18" target="Y1CFVkIWuGub_H-9LGFk-21" edge="1">
          <mxGeometry relative="1" as="geometry" />
        </mxCell>
        <mxCell id="Y1CFVkIWuGub_H-9LGFk-67" style="edgeStyle=orthogonalEdgeStyle;rounded=0;orthogonalLoop=1;jettySize=auto;html=1;exitX=1;exitY=0.5;exitDx=0;exitDy=0;entryX=0;entryY=0.75;entryDx=0;entryDy=0;" parent="1" source="Y1CFVkIWuGub_H-9LGFk-18" target="Y1CFVkIWuGub_H-9LGFk-66" edge="1">
          <mxGeometry relative="1" as="geometry">
            <Array as="points">
              <mxPoint x="470" y="190" />
              <mxPoint x="470" y="240" />
            </Array>
          </mxGeometry>
        </mxCell>
        <mxCell id="Y1CFVkIWuGub_H-9LGFk-18" value="H.O.&lt;br&gt;MSP" style="whiteSpace=wrap;html=1;aspect=fixed;" parent="1" vertex="1">
          <mxGeometry x="410" y="170" width="40" height="40" as="geometry" />
        </mxCell>
        <mxCell id="Y1CFVkIWuGub_H-9LGFk-34" style="edgeStyle=orthogonalEdgeStyle;rounded=0;orthogonalLoop=1;jettySize=auto;html=1;exitX=1;exitY=0.5;exitDx=0;exitDy=0;entryX=0;entryY=0.5;entryDx=0;entryDy=0;" parent="1" source="Y1CFVkIWuGub_H-9LGFk-20" target="Y1CFVkIWuGub_H-9LGFk-28" edge="1">
          <mxGeometry relative="1" as="geometry" />
        </mxCell>
        <mxCell id="Y1CFVkIWuGub_H-9LGFk-20" value="H.O. 1" style="rounded=0;whiteSpace=wrap;html=1;" parent="1" vertex="1">
          <mxGeometry x="490" y="160" width="50" height="20" as="geometry" />
        </mxCell>
        <mxCell id="Y1CFVkIWuGub_H-9LGFk-35" style="edgeStyle=orthogonalEdgeStyle;rounded=0;orthogonalLoop=1;jettySize=auto;html=1;exitX=1;exitY=0.5;exitDx=0;exitDy=0;entryX=0;entryY=0.5;entryDx=0;entryDy=0;" parent="1" source="Y1CFVkIWuGub_H-9LGFk-21" target="Y1CFVkIWuGub_H-9LGFk-29" edge="1">
          <mxGeometry relative="1" as="geometry" />
        </mxCell>
        <mxCell id="Y1CFVkIWuGub_H-9LGFk-21" value="H.O. 2" style="rounded=0;whiteSpace=wrap;html=1;" parent="1" vertex="1">
          <mxGeometry x="490" y="195" width="50" height="20" as="geometry" />
        </mxCell>
        <mxCell id="Y1CFVkIWuGub_H-9LGFk-62" style="edgeStyle=orthogonalEdgeStyle;rounded=0;orthogonalLoop=1;jettySize=auto;html=1;exitX=1;exitY=0.5;exitDx=0;exitDy=0;entryX=1;entryY=0.5;entryDx=0;entryDy=0;startArrow=classic;startFill=1;" parent="1" source="Y1CFVkIWuGub_H-9LGFk-28" target="Y1CFVkIWuGub_H-9LGFk-58" edge="1">
          <mxGeometry relative="1" as="geometry">
            <Array as="points">
              <mxPoint x="740" y="170" />
              <mxPoint x="740" y="320" />
            </Array>
          </mxGeometry>
        </mxCell>
        <mxCell id="Y1CFVkIWuGub_H-9LGFk-32" style="edgeStyle=orthogonalEdgeStyle;rounded=0;orthogonalLoop=1;jettySize=auto;html=1;exitX=0.75;exitY=1;exitDx=0;exitDy=0;entryX=0.75;entryY=0;entryDx=0;entryDy=0;" parent="1" source="Y1CFVkIWuGub_H-9LGFk-28" target="Y1CFVkIWuGub_H-9LGFk-29" edge="1">
          <mxGeometry relative="1" as="geometry" />
        </mxCell>
        <mxCell id="Y1CFVkIWuGub_H-9LGFk-48" style="edgeStyle=orthogonalEdgeStyle;rounded=0;orthogonalLoop=1;jettySize=auto;html=1;exitX=1;exitY=0.5;exitDx=0;exitDy=0;entryX=1;entryY=0.5;entryDx=0;entryDy=0;startArrow=classic;startFill=1;" parent="1" source="Y1CFVkIWuGub_H-9LGFk-28" target="Y1CFVkIWuGub_H-9LGFk-45" edge="1">
          <mxGeometry relative="1" as="geometry">
            <Array as="points">
              <mxPoint x="740" y="170" />
              <mxPoint x="740" y="300" />
            </Array>
          </mxGeometry>
        </mxCell>
        <mxCell id="Y1CFVkIWuGub_H-9LGFk-60" style="edgeStyle=orthogonalEdgeStyle;rounded=0;orthogonalLoop=1;jettySize=auto;html=1;exitX=1;exitY=0.5;exitDx=0;exitDy=0;entryX=1;entryY=0.5;entryDx=0;entryDy=0;startArrow=classic;startFill=1;dashed=1;" parent="1" source="Y1CFVkIWuGub_H-9LGFk-29" target="Y1CFVkIWuGub_H-9LGFk-73" edge="1">
          <mxGeometry relative="1" as="geometry">
            <Array as="points">
              <mxPoint x="740" y="205" />
              <mxPoint x="740" y="406" />
            </Array>
          </mxGeometry>
        </mxCell>
        <mxCell id="Y1CFVkIWuGub_H-9LGFk-33" style="edgeStyle=orthogonalEdgeStyle;rounded=0;orthogonalLoop=1;jettySize=auto;html=1;exitX=0.25;exitY=0;exitDx=0;exitDy=0;entryX=0.25;entryY=1;entryDx=0;entryDy=0;" parent="1" source="Y1CFVkIWuGub_H-9LGFk-29" target="Y1CFVkIWuGub_H-9LGFk-28" edge="1">
          <mxGeometry relative="1" as="geometry" />
        </mxCell>
        <mxCell id="Y1CFVkIWuGub_H-9LGFk-47" style="edgeStyle=orthogonalEdgeStyle;rounded=0;orthogonalLoop=1;jettySize=auto;html=1;exitX=1;exitY=0.5;exitDx=0;exitDy=0;entryX=1;entryY=0.5;entryDx=0;entryDy=0;startArrow=classic;startFill=1;" parent="1" source="Y1CFVkIWuGub_H-9LGFk-29" target="Y1CFVkIWuGub_H-9LGFk-45" edge="1">
          <mxGeometry relative="1" as="geometry">
            <Array as="points">
              <mxPoint x="740" y="205" />
              <mxPoint x="740" y="300" />
            </Array>
          </mxGeometry>
        </mxCell>
        <mxCell id="Y1CFVkIWuGub_H-9LGFk-44" style="edgeStyle=orthogonalEdgeStyle;rounded=0;orthogonalLoop=1;jettySize=auto;html=1;exitX=1;exitY=0.5;exitDx=0;exitDy=0;entryX=0;entryY=0.5;entryDx=0;entryDy=0;" parent="1" source="Y1CFVkIWuGub_H-9LGFk-42" target="Y1CFVkIWuGub_H-9LGFk-43" edge="1">
          <mxGeometry relative="1" as="geometry" />
        </mxCell>
        <mxCell id="Y1CFVkIWuGub_H-9LGFk-65" style="edgeStyle=orthogonalEdgeStyle;rounded=0;orthogonalLoop=1;jettySize=auto;html=1;exitX=1;exitY=0.5;exitDx=0;exitDy=0;entryX=0;entryY=0.5;entryDx=0;entryDy=0;dashed=1;" parent="1" source="Y1CFVkIWuGub_H-9LGFk-42" target="Y1CFVkIWuGub_H-9LGFk-64" edge="1">
          <mxGeometry relative="1" as="geometry" />
        </mxCell>
        <mxCell id="Y1CFVkIWuGub_H-9LGFk-42" value="Patient&lt;br&gt;MSP" style="whiteSpace=wrap;html=1;aspect=fixed;" parent="1" vertex="1">
          <mxGeometry x="410" y="280" width="40" height="40" as="geometry" />
        </mxCell>
        <mxCell id="Y1CFVkIWuGub_H-9LGFk-49" style="edgeStyle=orthogonalEdgeStyle;rounded=0;orthogonalLoop=1;jettySize=auto;html=1;exitX=1;exitY=0.5;exitDx=0;exitDy=0;entryX=0;entryY=0.5;entryDx=0;entryDy=0;" parent="1" source="Y1CFVkIWuGub_H-9LGFk-43" target="Y1CFVkIWuGub_H-9LGFk-45" edge="1">
          <mxGeometry relative="1" as="geometry" />
        </mxCell>
        <mxCell id="Y1CFVkIWuGub_H-9LGFk-43" value="Patient Organization" style="rounded=0;whiteSpace=wrap;html=1;" parent="1" vertex="1">
          <mxGeometry x="490" y="285" width="80" height="30" as="geometry" />
        </mxCell>
        <mxCell id="Y1CFVkIWuGub_H-9LGFk-50" value="" style="rounded=1;whiteSpace=wrap;html=1;dashed=1;" parent="1" vertex="1">
          <mxGeometry x="600" y="285" width="100" height="65" as="geometry" />
        </mxCell>
        <mxCell id="_zq5Br-wlhpzqFv__YLc-2" style="edgeStyle=orthogonalEdgeStyle;rounded=0;orthogonalLoop=1;jettySize=auto;html=1;exitX=1;exitY=0.5;exitDx=0;exitDy=0;entryX=1;entryY=0.5;entryDx=0;entryDy=0;startArrow=classic;startFill=1;dashed=1;" parent="1" source="Y1CFVkIWuGub_H-9LGFk-45" target="Y1CFVkIWuGub_H-9LGFk-71" edge="1">
          <mxGeometry relative="1" as="geometry">
            <Array as="points">
              <mxPoint x="740" y="300" />
              <mxPoint x="740" y="385" />
            </Array>
          </mxGeometry>
        </mxCell>
        <mxCell id="Y1CFVkIWuGub_H-9LGFk-45" value="Anchor Patient 1" style="text;strokeColor=none;align=center;fillColor=none;html=1;verticalAlign=middle;whiteSpace=wrap;rounded=0;" parent="1" vertex="1">
          <mxGeometry x="600" y="285" width="100" height="30" as="geometry" />
        </mxCell>
        <mxCell id="Y1CFVkIWuGub_H-9LGFk-56" value="..." style="text;strokeColor=none;align=center;fillColor=none;html=1;verticalAlign=middle;whiteSpace=wrap;rounded=0;" parent="1" vertex="1">
          <mxGeometry x="637.5" y="330" width="25" height="20" as="geometry" />
        </mxCell>
        <mxCell id="Y1CFVkIWuGub_H-9LGFk-58" value="Anchor Patient 2" style="text;strokeColor=none;align=center;fillColor=none;html=1;verticalAlign=middle;whiteSpace=wrap;rounded=0;" parent="1" vertex="1">
          <mxGeometry x="600" y="305" width="100" height="30" as="geometry" />
        </mxCell>
        <mxCell id="Y1CFVkIWuGub_H-9LGFk-72" style="edgeStyle=orthogonalEdgeStyle;rounded=0;orthogonalLoop=1;jettySize=auto;html=1;exitX=1;exitY=0.5;exitDx=0;exitDy=0;" parent="1" source="Y1CFVkIWuGub_H-9LGFk-64" target="Y1CFVkIWuGub_H-9LGFk-71" edge="1">
          <mxGeometry relative="1" as="geometry" />
        </mxCell>
        <mxCell id="Y1CFVkIWuGub_H-9LGFk-64" value="Delegate Organization" style="rounded=0;whiteSpace=wrap;html=1;" parent="1" vertex="1">
          <mxGeometry x="490" y="370" width="80" height="30" as="geometry" />
        </mxCell>
        <mxCell id="Y1CFVkIWuGub_H-9LGFk-66" value="..." style="text;strokeColor=none;align=center;fillColor=none;html=1;verticalAlign=middle;whiteSpace=wrap;rounded=0;" parent="1" vertex="1">
          <mxGeometry x="490" y="225" width="25" height="20" as="geometry" />
        </mxCell>
        <mxCell id="Y1CFVkIWuGub_H-9LGFk-68" value="" style="rounded=1;whiteSpace=wrap;html=1;dashed=1;" parent="1" vertex="1">
          <mxGeometry x="600" y="370" width="110" height="65" as="geometry" />
        </mxCell>
        <mxCell id="Y1CFVkIWuGub_H-9LGFk-71" value="Anchor Delegate 1" style="text;strokeColor=none;align=center;fillColor=none;html=1;verticalAlign=middle;whiteSpace=wrap;rounded=0;" parent="1" vertex="1">
          <mxGeometry x="600" y="370" width="110" height="30" as="geometry" />
        </mxCell>
        <mxCell id="Y1CFVkIWuGub_H-9LGFk-73" value="Anchor Delegate 2" style="text;strokeColor=none;align=center;fillColor=none;html=1;verticalAlign=middle;whiteSpace=wrap;rounded=0;" parent="1" vertex="1">
          <mxGeometry x="600" y="391.5" width="110" height="30" as="geometry" />
        </mxCell>
        <mxCell id="Y1CFVkIWuGub_H-9LGFk-74" value="..." style="text;strokeColor=none;align=center;fillColor=none;html=1;verticalAlign=middle;whiteSpace=wrap;rounded=0;" parent="1" vertex="1">
          <mxGeometry x="637.5" y="415" width="25" height="20" as="geometry" />
        </mxCell>
        <mxCell id="_zq5Br-wlhpzqFv__YLc-6" style="edgeStyle=orthogonalEdgeStyle;rounded=0;orthogonalLoop=1;jettySize=auto;html=1;exitX=1;exitY=0.5;exitDx=0;exitDy=0;endArrow=none;endFill=0;dashed=1;dashPattern=1 4;entryX=0;entryY=0.324;entryDx=0;entryDy=0;entryPerimeter=0;" parent="1" source="Y1CFVkIWuGub_H-9LGFk-75" target="Y1CFVkIWuGub_H-9LGFk-78" edge="1">
          <mxGeometry relative="1" as="geometry">
            <mxPoint x="830" y="245" as="targetPoint" />
            <Array as="points" />
          </mxGeometry>
        </mxCell>
        <mxCell id="Y1CFVkIWuGub_H-9LGFk-75" value="Gossip Channel" style="text;strokeColor=none;align=center;fillColor=none;html=1;verticalAlign=middle;whiteSpace=wrap;rounded=0;" parent="1" vertex="1">
          <mxGeometry x="740" y="230" width="60" height="30" as="geometry" />
        </mxCell>
        <mxCell id="Y1CFVkIWuGub_H-9LGFk-78" value="" style="shape=datastore;whiteSpace=wrap;html=1;" parent="1" vertex="1">
          <mxGeometry x="840" y="190" width="120" height="170" as="geometry" />
        </mxCell>
        <mxCell id="Y1CFVkIWuGub_H-9LGFk-77" value="Private Blockchain" style="text;strokeColor=none;align=center;fillColor=none;html=1;verticalAlign=middle;whiteSpace=wrap;rounded=0;" parent="1" vertex="1">
          <mxGeometry x="840" y="195" width="120" height="30" as="geometry" />
        </mxCell>
        <mxCell id="Y1CFVkIWuGub_H-9LGFk-79" value="" style="rounded=0;whiteSpace=wrap;html=1;" parent="1" vertex="1">
          <mxGeometry x="845" y="260" width="110" height="15" as="geometry" />
        </mxCell>
        <mxCell id="Y1CFVkIWuGub_H-9LGFk-80" value="" style="rounded=0;whiteSpace=wrap;html=1;" parent="1" vertex="1">
          <mxGeometry x="845" y="280" width="110" height="15" as="geometry" />
        </mxCell>
        <mxCell id="_zq5Br-wlhpzqFv__YLc-10" value="" style="rounded=1;whiteSpace=wrap;html=1;dashed=1;" parent="1" vertex="1">
          <mxGeometry x="560" y="157.5" width="90" height="92.5" as="geometry" />
        </mxCell>
        <mxCell id="Y1CFVkIWuGub_H-9LGFk-81" value="" style="rounded=0;whiteSpace=wrap;html=1;" parent="1" vertex="1">
          <mxGeometry x="845" y="300" width="110" height="15" as="geometry" />
        </mxCell>
        <mxCell id="Y1CFVkIWuGub_H-9LGFk-82" value="" style="rounded=0;whiteSpace=wrap;html=1;" parent="1" vertex="1">
          <mxGeometry x="845" y="320" width="110" height="15" as="geometry" />
        </mxCell>
        <mxCell id="_zq5Br-wlhpzqFv__YLc-7" value="Data Storage" style="text;strokeColor=none;align=center;fillColor=none;html=1;verticalAlign=middle;whiteSpace=wrap;rounded=0;" parent="1" vertex="1">
          <mxGeometry x="860" y="160" width="80" height="30" as="geometry" />
        </mxCell>
        <mxCell id="_zq5Br-wlhpzqFv__YLc-8" value="Data Access Channel" style="text;strokeColor=none;align=center;fillColor=none;html=1;verticalAlign=middle;whiteSpace=wrap;rounded=0;" parent="1" vertex="1">
          <mxGeometry x="600" y="570" width="160" height="20" as="geometry" />
        </mxCell>
        <mxCell id="Y1CFVkIWuGub_H-9LGFk-29" value="Anchor H.O. 2" style="text;strokeColor=none;align=center;fillColor=none;html=1;verticalAlign=middle;whiteSpace=wrap;rounded=0;" parent="1" vertex="1">
          <mxGeometry x="560" y="190" width="90" height="30" as="geometry" />
        </mxCell>
        <mxCell id="Y1CFVkIWuGub_H-9LGFk-28" value="Anchor H.O. 1" style="text;strokeColor=none;align=center;fillColor=none;html=1;verticalAlign=middle;whiteSpace=wrap;rounded=0;" parent="1" vertex="1">
          <mxGeometry x="560" y="155" width="90" height="30" as="geometry" />
        </mxCell>
        <mxCell id="_zq5Br-wlhpzqFv__YLc-11" value="..." style="text;strokeColor=none;align=center;fillColor=none;html=1;verticalAlign=middle;whiteSpace=wrap;rounded=0;" parent="1" vertex="1">
          <mxGeometry x="592.5" y="225" width="25" height="20" as="geometry" />
        </mxCell>
        <mxCell id="_zq5Br-wlhpzqFv__YLc-13" style="edgeStyle=orthogonalEdgeStyle;rounded=0;orthogonalLoop=1;jettySize=auto;html=1;exitX=1;exitY=0.5;exitDx=0;exitDy=0;entryX=0;entryY=0.75;entryDx=0;entryDy=0;" parent="1" source="Y1CFVkIWuGub_H-9LGFk-18" target="Y1CFVkIWuGub_H-9LGFk-66" edge="1">
          <mxGeometry relative="1" as="geometry">
            <mxPoint x="450" y="190" as="sourcePoint" />
            <mxPoint x="490" y="240" as="targetPoint" />
            <Array as="points">
              <mxPoint x="470" y="190" />
              <mxPoint x="470" y="240" />
            </Array>
          </mxGeometry>
        </mxCell>
      </root>
    </mxGraphModel>
  </diagram>
  <diagram id="XtpVKRl7XLYo2x3HiYs4" name="IEEE ICDH 23 Diagram">
    <mxGraphModel dx="789" dy="472" grid="1" gridSize="10" guides="1" tooltips="1" connect="1" arrows="1" fold="1" page="1" pageScale="1" pageWidth="1100" pageHeight="850" math="0" shadow="0">
      <root>
        <mxCell id="0" />
        <mxCell id="1" parent="0" />
        <mxCell id="f_GC6UOBkS5GIse-A6C5-2" value="Public&lt;br&gt;Certificate&lt;br&gt;Authority" style="rounded=1;whiteSpace=wrap;html=1;" vertex="1" parent="1">
          <mxGeometry x="200" y="160" width="120" height="60" as="geometry" />
        </mxCell>
        <mxCell id="f_GC6UOBkS5GIse-A6C5-3" value="" style="endArrow=classic;startArrow=classic;html=1;rounded=0;exitX=1;exitY=0.5;exitDx=0;exitDy=0;entryX=0.002;entryY=0.199;entryDx=0;entryDy=0;entryPerimeter=0;" edge="1" parent="1" source="f_GC6UOBkS5GIse-A6C5-2" target="f_GC6UOBkS5GIse-A6C5-24">
          <mxGeometry width="50" height="50" relative="1" as="geometry">
            <mxPoint x="450" y="330" as="sourcePoint" />
            <mxPoint x="400" y="255" as="targetPoint" />
            <Array as="points">
              <mxPoint x="360" y="190" />
            </Array>
          </mxGeometry>
        </mxCell>
        <mxCell id="f_GC6UOBkS5GIse-A6C5-4" value="Secure Channel" style="text;strokeColor=none;align=center;fillColor=none;html=1;verticalAlign=middle;whiteSpace=wrap;rounded=0;" vertex="1" parent="1">
          <mxGeometry x="330" y="150" width="60" height="30" as="geometry" />
        </mxCell>
        <mxCell id="f_GC6UOBkS5GIse-A6C5-5" value="Ethereum" style="text;strokeColor=none;align=center;fillColor=none;html=1;verticalAlign=middle;whiteSpace=wrap;rounded=0;" vertex="1" parent="1">
          <mxGeometry x="230" y="275" width="60" height="20" as="geometry" />
        </mxCell>
        <mxCell id="f_GC6UOBkS5GIse-A6C5-23" value="" style="whiteSpace=wrap;html=1;aspect=fixed;" vertex="1" parent="1">
          <mxGeometry x="440" y="180" width="40" height="40" as="geometry" />
        </mxCell>
        <mxCell id="j7jYpz5MlSridz4aXHxH-4" style="edgeStyle=orthogonalEdgeStyle;rounded=0;orthogonalLoop=1;jettySize=auto;html=1;exitX=0;exitY=0.5;exitDx=0;exitDy=0;endArrow=none;endFill=0;startArrow=classic;startFill=1;" edge="1" parent="1" source="f_GC6UOBkS5GIse-A6C5-24">
          <mxGeometry relative="1" as="geometry">
            <mxPoint x="360" y="190" as="targetPoint" />
            <Array as="points">
              <mxPoint x="360" y="299" />
            </Array>
          </mxGeometry>
        </mxCell>
        <mxCell id="f_GC6UOBkS5GIse-A6C5-24" value="" style="rounded=1;whiteSpace=wrap;html=1;dashed=1;dashPattern=1 1;" vertex="1" parent="1">
          <mxGeometry x="400" y="117.5" width="320" height="362.5" as="geometry" />
        </mxCell>
        <mxCell id="f_GC6UOBkS5GIse-A6C5-25" value="Fabric Channel Subnet" style="text;strokeColor=none;align=center;fillColor=none;html=1;verticalAlign=middle;whiteSpace=wrap;rounded=0;" vertex="1" parent="1">
          <mxGeometry x="540" y="117.5" width="140" height="30" as="geometry" />
        </mxCell>
        <mxCell id="f_GC6UOBkS5GIse-A6C5-26" style="edgeStyle=orthogonalEdgeStyle;rounded=0;orthogonalLoop=1;jettySize=auto;html=1;exitX=1;exitY=0.5;exitDx=0;exitDy=0;entryX=0;entryY=0.5;entryDx=0;entryDy=0;" edge="1" parent="1" source="f_GC6UOBkS5GIse-A6C5-29" target="f_GC6UOBkS5GIse-A6C5-31">
          <mxGeometry relative="1" as="geometry" />
        </mxCell>
        <mxCell id="f_GC6UOBkS5GIse-A6C5-27" style="edgeStyle=orthogonalEdgeStyle;rounded=0;orthogonalLoop=1;jettySize=auto;html=1;exitX=1;exitY=0.5;exitDx=0;exitDy=0;entryX=0;entryY=0.5;entryDx=0;entryDy=0;" edge="1" parent="1" source="f_GC6UOBkS5GIse-A6C5-29" target="f_GC6UOBkS5GIse-A6C5-33">
          <mxGeometry relative="1" as="geometry" />
        </mxCell>
        <mxCell id="j7jYpz5MlSridz4aXHxH-10" style="edgeStyle=orthogonalEdgeStyle;rounded=0;orthogonalLoop=1;jettySize=auto;html=1;exitX=1;exitY=0.5;exitDx=0;exitDy=0;entryX=0;entryY=0.5;entryDx=0;entryDy=0;" edge="1" parent="1" source="f_GC6UOBkS5GIse-A6C5-29" target="j7jYpz5MlSridz4aXHxH-6">
          <mxGeometry relative="1" as="geometry" />
        </mxCell>
        <mxCell id="f_GC6UOBkS5GIse-A6C5-29" value="H.O.&lt;br&gt;MSP" style="whiteSpace=wrap;html=1;aspect=fixed;" vertex="1" parent="1">
          <mxGeometry x="410" y="170" width="40" height="40" as="geometry" />
        </mxCell>
        <mxCell id="f_GC6UOBkS5GIse-A6C5-30" style="edgeStyle=orthogonalEdgeStyle;rounded=0;orthogonalLoop=1;jettySize=auto;html=1;exitX=1;exitY=0.5;exitDx=0;exitDy=0;entryX=0;entryY=0.5;entryDx=0;entryDy=0;" edge="1" parent="1" source="f_GC6UOBkS5GIse-A6C5-31" target="f_GC6UOBkS5GIse-A6C5-69">
          <mxGeometry relative="1" as="geometry" />
        </mxCell>
        <mxCell id="f_GC6UOBkS5GIse-A6C5-31" value="H.O. 1" style="rounded=0;whiteSpace=wrap;html=1;" vertex="1" parent="1">
          <mxGeometry x="490" y="160" width="50" height="20" as="geometry" />
        </mxCell>
        <mxCell id="f_GC6UOBkS5GIse-A6C5-32" style="edgeStyle=orthogonalEdgeStyle;rounded=0;orthogonalLoop=1;jettySize=auto;html=1;exitX=1;exitY=0.5;exitDx=0;exitDy=0;entryX=0;entryY=0.5;entryDx=0;entryDy=0;" edge="1" parent="1" source="f_GC6UOBkS5GIse-A6C5-33" target="f_GC6UOBkS5GIse-A6C5-68">
          <mxGeometry relative="1" as="geometry" />
        </mxCell>
        <mxCell id="f_GC6UOBkS5GIse-A6C5-33" value="H.O. 2" style="rounded=0;whiteSpace=wrap;html=1;" vertex="1" parent="1">
          <mxGeometry x="490" y="195" width="50" height="20" as="geometry" />
        </mxCell>
        <mxCell id="f_GC6UOBkS5GIse-A6C5-34" style="edgeStyle=orthogonalEdgeStyle;rounded=0;orthogonalLoop=1;jettySize=auto;html=1;exitX=1;exitY=0.5;exitDx=0;exitDy=0;entryX=1;entryY=0.5;entryDx=0;entryDy=0;startArrow=classic;startFill=1;" edge="1" parent="1" source="f_GC6UOBkS5GIse-A6C5-69" target="f_GC6UOBkS5GIse-A6C5-49">
          <mxGeometry relative="1" as="geometry">
            <Array as="points">
              <mxPoint x="740" y="170" />
              <mxPoint x="740" y="320" />
            </Array>
          </mxGeometry>
        </mxCell>
        <mxCell id="f_GC6UOBkS5GIse-A6C5-35" style="edgeStyle=orthogonalEdgeStyle;rounded=0;orthogonalLoop=1;jettySize=auto;html=1;exitX=0.75;exitY=1;exitDx=0;exitDy=0;entryX=0.75;entryY=0;entryDx=0;entryDy=0;" edge="1" parent="1" source="f_GC6UOBkS5GIse-A6C5-69" target="f_GC6UOBkS5GIse-A6C5-68">
          <mxGeometry relative="1" as="geometry" />
        </mxCell>
        <mxCell id="f_GC6UOBkS5GIse-A6C5-36" style="edgeStyle=orthogonalEdgeStyle;rounded=0;orthogonalLoop=1;jettySize=auto;html=1;exitX=1;exitY=0.5;exitDx=0;exitDy=0;entryX=1;entryY=0.5;entryDx=0;entryDy=0;startArrow=classic;startFill=1;" edge="1" parent="1" source="f_GC6UOBkS5GIse-A6C5-69" target="f_GC6UOBkS5GIse-A6C5-47">
          <mxGeometry relative="1" as="geometry">
            <Array as="points">
              <mxPoint x="740" y="170" />
              <mxPoint x="740" y="300" />
            </Array>
          </mxGeometry>
        </mxCell>
        <mxCell id="f_GC6UOBkS5GIse-A6C5-37" style="edgeStyle=orthogonalEdgeStyle;rounded=0;orthogonalLoop=1;jettySize=auto;html=1;exitX=1;exitY=0.5;exitDx=0;exitDy=0;entryX=1;entryY=0.5;entryDx=0;entryDy=0;startArrow=classic;startFill=1;dashed=1;" edge="1" parent="1" source="f_GC6UOBkS5GIse-A6C5-68" target="f_GC6UOBkS5GIse-A6C5-55">
          <mxGeometry relative="1" as="geometry">
            <Array as="points">
              <mxPoint x="740" y="205" />
              <mxPoint x="740" y="406" />
            </Array>
          </mxGeometry>
        </mxCell>
        <mxCell id="f_GC6UOBkS5GIse-A6C5-38" style="edgeStyle=orthogonalEdgeStyle;rounded=0;orthogonalLoop=1;jettySize=auto;html=1;exitX=0.25;exitY=0;exitDx=0;exitDy=0;entryX=0.25;entryY=1;entryDx=0;entryDy=0;" edge="1" parent="1" source="f_GC6UOBkS5GIse-A6C5-68" target="f_GC6UOBkS5GIse-A6C5-69">
          <mxGeometry relative="1" as="geometry" />
        </mxCell>
        <mxCell id="f_GC6UOBkS5GIse-A6C5-39" style="edgeStyle=orthogonalEdgeStyle;rounded=0;orthogonalLoop=1;jettySize=auto;html=1;exitX=1;exitY=0.5;exitDx=0;exitDy=0;entryX=1;entryY=0.5;entryDx=0;entryDy=0;startArrow=classic;startFill=1;" edge="1" parent="1" source="f_GC6UOBkS5GIse-A6C5-68" target="f_GC6UOBkS5GIse-A6C5-47">
          <mxGeometry relative="1" as="geometry">
            <Array as="points">
              <mxPoint x="740" y="205" />
              <mxPoint x="740" y="300" />
            </Array>
          </mxGeometry>
        </mxCell>
        <mxCell id="f_GC6UOBkS5GIse-A6C5-40" style="edgeStyle=orthogonalEdgeStyle;rounded=0;orthogonalLoop=1;jettySize=auto;html=1;exitX=1;exitY=0.5;exitDx=0;exitDy=0;entryX=0;entryY=0.5;entryDx=0;entryDy=0;" edge="1" parent="1" source="f_GC6UOBkS5GIse-A6C5-42" target="f_GC6UOBkS5GIse-A6C5-44">
          <mxGeometry relative="1" as="geometry" />
        </mxCell>
        <mxCell id="f_GC6UOBkS5GIse-A6C5-41" style="edgeStyle=orthogonalEdgeStyle;rounded=0;orthogonalLoop=1;jettySize=auto;html=1;exitX=1;exitY=0.5;exitDx=0;exitDy=0;entryX=0;entryY=0.5;entryDx=0;entryDy=0;dashed=1;" edge="1" parent="1" source="f_GC6UOBkS5GIse-A6C5-42" target="f_GC6UOBkS5GIse-A6C5-51">
          <mxGeometry relative="1" as="geometry" />
        </mxCell>
        <mxCell id="f_GC6UOBkS5GIse-A6C5-42" value="Patient&lt;br&gt;MSP" style="whiteSpace=wrap;html=1;aspect=fixed;" vertex="1" parent="1">
          <mxGeometry x="410" y="280" width="40" height="40" as="geometry" />
        </mxCell>
        <mxCell id="f_GC6UOBkS5GIse-A6C5-43" style="edgeStyle=orthogonalEdgeStyle;rounded=0;orthogonalLoop=1;jettySize=auto;html=1;exitX=1;exitY=0.5;exitDx=0;exitDy=0;entryX=0;entryY=0.5;entryDx=0;entryDy=0;" edge="1" parent="1" source="f_GC6UOBkS5GIse-A6C5-44" target="f_GC6UOBkS5GIse-A6C5-47">
          <mxGeometry relative="1" as="geometry" />
        </mxCell>
        <mxCell id="f_GC6UOBkS5GIse-A6C5-44" value="Patient Organization" style="rounded=0;whiteSpace=wrap;html=1;" vertex="1" parent="1">
          <mxGeometry x="490" y="285" width="80" height="30" as="geometry" />
        </mxCell>
        <mxCell id="f_GC6UOBkS5GIse-A6C5-45" value="" style="rounded=1;whiteSpace=wrap;html=1;dashed=1;" vertex="1" parent="1">
          <mxGeometry x="600" y="285" width="100" height="65" as="geometry" />
        </mxCell>
        <mxCell id="f_GC6UOBkS5GIse-A6C5-46" style="edgeStyle=orthogonalEdgeStyle;rounded=0;orthogonalLoop=1;jettySize=auto;html=1;exitX=1;exitY=0.5;exitDx=0;exitDy=0;entryX=1;entryY=0.5;entryDx=0;entryDy=0;startArrow=classic;startFill=1;dashed=1;" edge="1" parent="1" source="f_GC6UOBkS5GIse-A6C5-47" target="f_GC6UOBkS5GIse-A6C5-54">
          <mxGeometry relative="1" as="geometry">
            <Array as="points">
              <mxPoint x="740" y="300" />
              <mxPoint x="740" y="385" />
            </Array>
          </mxGeometry>
        </mxCell>
        <mxCell id="f_GC6UOBkS5GIse-A6C5-47" value="Anchor Patient 1" style="text;strokeColor=none;align=center;fillColor=none;html=1;verticalAlign=middle;whiteSpace=wrap;rounded=0;" vertex="1" parent="1">
          <mxGeometry x="600" y="285" width="100" height="30" as="geometry" />
        </mxCell>
        <mxCell id="f_GC6UOBkS5GIse-A6C5-48" value="..." style="text;strokeColor=none;align=center;fillColor=none;html=1;verticalAlign=middle;whiteSpace=wrap;rounded=0;" vertex="1" parent="1">
          <mxGeometry x="637.5" y="330" width="25" height="20" as="geometry" />
        </mxCell>
        <mxCell id="f_GC6UOBkS5GIse-A6C5-49" value="Anchor Patient 2" style="text;strokeColor=none;align=center;fillColor=none;html=1;verticalAlign=middle;whiteSpace=wrap;rounded=0;" vertex="1" parent="1">
          <mxGeometry x="600" y="305" width="100" height="30" as="geometry" />
        </mxCell>
        <mxCell id="f_GC6UOBkS5GIse-A6C5-50" style="edgeStyle=orthogonalEdgeStyle;rounded=0;orthogonalLoop=1;jettySize=auto;html=1;exitX=1;exitY=0.5;exitDx=0;exitDy=0;" edge="1" parent="1" source="f_GC6UOBkS5GIse-A6C5-51" target="f_GC6UOBkS5GIse-A6C5-54">
          <mxGeometry relative="1" as="geometry" />
        </mxCell>
        <mxCell id="f_GC6UOBkS5GIse-A6C5-51" value="Delegate Organization" style="rounded=0;whiteSpace=wrap;html=1;" vertex="1" parent="1">
          <mxGeometry x="490" y="370" width="80" height="30" as="geometry" />
        </mxCell>
        <mxCell id="f_GC6UOBkS5GIse-A6C5-52" value="..." style="text;strokeColor=none;align=center;fillColor=none;html=1;verticalAlign=middle;whiteSpace=wrap;rounded=0;" vertex="1" parent="1">
          <mxGeometry x="502.5" y="220" width="25" height="20" as="geometry" />
        </mxCell>
        <mxCell id="f_GC6UOBkS5GIse-A6C5-53" value="" style="rounded=1;whiteSpace=wrap;html=1;dashed=1;" vertex="1" parent="1">
          <mxGeometry x="600" y="370" width="110" height="65" as="geometry" />
        </mxCell>
        <mxCell id="f_GC6UOBkS5GIse-A6C5-54" value="Anchor Delegate 1" style="text;strokeColor=none;align=center;fillColor=none;html=1;verticalAlign=middle;whiteSpace=wrap;rounded=0;" vertex="1" parent="1">
          <mxGeometry x="600" y="370" width="110" height="30" as="geometry" />
        </mxCell>
        <mxCell id="f_GC6UOBkS5GIse-A6C5-55" value="Anchor Delegate 2" style="text;strokeColor=none;align=center;fillColor=none;html=1;verticalAlign=middle;whiteSpace=wrap;rounded=0;" vertex="1" parent="1">
          <mxGeometry x="600" y="391.5" width="110" height="30" as="geometry" />
        </mxCell>
        <mxCell id="f_GC6UOBkS5GIse-A6C5-56" value="..." style="text;strokeColor=none;align=center;fillColor=none;html=1;verticalAlign=middle;whiteSpace=wrap;rounded=0;" vertex="1" parent="1">
          <mxGeometry x="637.5" y="415" width="25" height="20" as="geometry" />
        </mxCell>
        <mxCell id="f_GC6UOBkS5GIse-A6C5-57" style="edgeStyle=orthogonalEdgeStyle;rounded=0;orthogonalLoop=1;jettySize=auto;html=1;exitX=1;exitY=0.5;exitDx=0;exitDy=0;endArrow=none;endFill=0;dashed=1;dashPattern=1 4;entryX=0;entryY=0.324;entryDx=0;entryDy=0;entryPerimeter=0;" edge="1" parent="1" source="f_GC6UOBkS5GIse-A6C5-58" target="f_GC6UOBkS5GIse-A6C5-59">
          <mxGeometry relative="1" as="geometry">
            <mxPoint x="830" y="245" as="targetPoint" />
            <Array as="points" />
          </mxGeometry>
        </mxCell>
        <mxCell id="f_GC6UOBkS5GIse-A6C5-58" value="Gossip Channel" style="text;strokeColor=none;align=center;fillColor=none;html=1;verticalAlign=middle;whiteSpace=wrap;rounded=0;" vertex="1" parent="1">
          <mxGeometry x="740" y="230" width="60" height="30" as="geometry" />
        </mxCell>
        <mxCell id="f_GC6UOBkS5GIse-A6C5-59" value="" style="shape=datastore;whiteSpace=wrap;html=1;" vertex="1" parent="1">
          <mxGeometry x="840" y="190" width="120" height="170" as="geometry" />
        </mxCell>
        <mxCell id="f_GC6UOBkS5GIse-A6C5-60" value="Private Blockchain" style="text;strokeColor=none;align=center;fillColor=none;html=1;verticalAlign=middle;whiteSpace=wrap;rounded=0;" vertex="1" parent="1">
          <mxGeometry x="840" y="195" width="120" height="30" as="geometry" />
        </mxCell>
        <mxCell id="f_GC6UOBkS5GIse-A6C5-61" value="" style="rounded=0;whiteSpace=wrap;html=1;" vertex="1" parent="1">
          <mxGeometry x="845" y="260" width="110" height="15" as="geometry" />
        </mxCell>
        <mxCell id="f_GC6UOBkS5GIse-A6C5-62" value="" style="rounded=0;whiteSpace=wrap;html=1;" vertex="1" parent="1">
          <mxGeometry x="845" y="280" width="110" height="15" as="geometry" />
        </mxCell>
        <mxCell id="f_GC6UOBkS5GIse-A6C5-63" value="" style="rounded=1;whiteSpace=wrap;html=1;dashed=1;" vertex="1" parent="1">
          <mxGeometry x="560" y="157.5" width="90" height="112.5" as="geometry" />
        </mxCell>
        <mxCell id="f_GC6UOBkS5GIse-A6C5-64" value="" style="rounded=0;whiteSpace=wrap;html=1;" vertex="1" parent="1">
          <mxGeometry x="845" y="300" width="110" height="15" as="geometry" />
        </mxCell>
        <mxCell id="f_GC6UOBkS5GIse-A6C5-65" value="" style="rounded=0;whiteSpace=wrap;html=1;" vertex="1" parent="1">
          <mxGeometry x="845" y="320" width="110" height="15" as="geometry" />
        </mxCell>
        <mxCell id="f_GC6UOBkS5GIse-A6C5-66" value="Data Storage" style="text;strokeColor=none;align=center;fillColor=none;html=1;verticalAlign=middle;whiteSpace=wrap;rounded=0;" vertex="1" parent="1">
          <mxGeometry x="860" y="160" width="80" height="30" as="geometry" />
        </mxCell>
        <mxCell id="f_GC6UOBkS5GIse-A6C5-68" value="Anchor H.O. 2" style="text;strokeColor=none;align=center;fillColor=none;html=1;verticalAlign=middle;whiteSpace=wrap;rounded=0;" vertex="1" parent="1">
          <mxGeometry x="560" y="190" width="90" height="30" as="geometry" />
        </mxCell>
        <mxCell id="f_GC6UOBkS5GIse-A6C5-69" value="Anchor H.O. 1" style="text;strokeColor=none;align=center;fillColor=none;html=1;verticalAlign=middle;whiteSpace=wrap;rounded=0;" vertex="1" parent="1">
          <mxGeometry x="560" y="155" width="90" height="30" as="geometry" />
        </mxCell>
        <mxCell id="f_GC6UOBkS5GIse-A6C5-70" value="..." style="text;strokeColor=none;align=center;fillColor=none;html=1;verticalAlign=middle;whiteSpace=wrap;rounded=0;" vertex="1" parent="1">
          <mxGeometry x="592.5" y="220" width="25" height="20" as="geometry" />
        </mxCell>
        <mxCell id="j7jYpz5MlSridz4aXHxH-6" value="H.O. N" style="rounded=0;whiteSpace=wrap;html=1;" vertex="1" parent="1">
          <mxGeometry x="490" y="245" width="50" height="20" as="geometry" />
        </mxCell>
        <mxCell id="j7jYpz5MlSridz4aXHxH-9" value="Anchor H.O. N" style="text;strokeColor=none;align=center;fillColor=none;html=1;verticalAlign=middle;whiteSpace=wrap;rounded=0;" vertex="1" parent="1">
          <mxGeometry x="560" y="240" width="90" height="30" as="geometry" />
        </mxCell>
      </root>
    </mxGraphModel>
  </diagram>
</mxfile>
